<?xml version="1.0" standalone="no"?>
<!DOCTYPE svg PUBLIC "-//W3C//DTD SVG 20010904//EN"
 "http://www.w3.org/TR/2001/REC-SVG-20010904/DTD/svg10.dtd">
<svg version="1.0" xmlns="http://www.w3.org/2000/svg"
 width="700.000000pt" height="700.000000pt" viewBox="0 0 700.000000 700.000000"
 preserveAspectRatio="xMidYMid meet">
<metadata>
Created by potrace 1.14, written by Peter Selinger 2001-2017
</metadata>
<g transform="translate(0.000000,700.000000) scale(0.100000,-0.100000)"
fill="#000000" stroke="none">
<path d="M1629 6996 c-2 -2 -47 -6 -99 -10 -360 -22 -640 -112 -881 -284 -350
-248 -559 -607 -619 -1060 -23 -174 -25 -351 -25 -2142 0 -1641 3 -1978 20
-2084 2 -11 6 -41 9 -66 3 -25 8 -56 11 -70 2 -14 7 -38 10 -55 16 -78 67
-233 108 -326 128 -285 382 -546 673 -693 100 -50 233 -100 324 -121 3 0 23
-5 45 -10 22 -5 42 -9 45 -10 3 -1 32 -5 65 -9 33 -4 71 -10 85 -12 93 -16
419 -19 2080 -19 2042 0 2028 0 2300 51 108 20 294 89 400 147 144 79 224 140
355 272 208 211 330 448 400 775 2 9 6 43 10 75 4 33 9 69 11 80 16 79 19 438
19 2085 0 1654 -3 2005 -19 2100 -3 14 -7 43 -10 65 -22 160 -70 321 -138 465
-110 231 -305 453 -522 595 -100 64 -315 164 -386 179 -14 3 -41 10 -60 15
-19 6 -60 16 -90 21 -30 6 -64 12 -76 14 -11 2 -54 7 -95 11 -41 4 -87 9 -104
13 -32 6 -3839 14 -3846 8z"/>
</g>
</svg>
